<svg width="1240" height="1252" viewBox="0 0 1240 1252" fill="none" xmlns="http://www.w3.org/2000/svg" style="background:transparent">
<g class="eff-1" filter="url(#filter0_f_1390_2298)">
<path d="M885.857 160.25L1024.14 911.075C1026.99 926.564 1042.13 936.591 1057.5 933.177V933.177C1072.87 929.763 1082.34 914.271 1078.37 899.031L885.857 160.25Z" fill="url(#paint0_linear_1390_2298)"/>
</g>
<g class="eff-2" filter="url(#filter1_f_1390_2298)">
<path d="M353.786 160.25L215.507 911.075C212.655 926.564 197.517 936.591 182.143 933.177V933.177C166.768 929.763 157.298 914.271 161.269 899.031L353.786 160.25Z" fill="url(#paint1_linear_1390_2298)"/>
</g>
<g class="eff-3" filter="url(#filter2_f_1390_2298)">
<path d="M620 163L648.095 1063.01C648.59 1078.87 635.868 1092 620 1092V1092C604.132 1092 591.41 1078.87 591.905 1063.01L620 163Z" fill="url(#paint2_linear_1390_2298)"/>
</g>
<defs>

<filter id="filter0_f_1390_2298" x="725.857" y="0.249634" width="513.422" height="1093.6" filterUnits="userSpaceOnUse" color-interpolation-filters="sRGB">
<feFlood flood-opacity="0" result="BackgroundImageFix"/>
<feBlend mode="normal" in="SourceGraphic" in2="BackgroundImageFix" result="shape"/>
<feGaussianBlur stdDeviation="80" result="effect1_foregroundBlur_1390_2298"/>
</filter>
<filter id="filter1_f_1390_2298" x="0.363525" y="0.249634" width="513.422" height="1093.6" filterUnits="userSpaceOnUse" color-interpolation-filters="sRGB">
<feFlood flood-opacity="0" result="BackgroundImageFix"/>
<feBlend mode="normal" in="SourceGraphic" in2="BackgroundImageFix" result="shape"/>
<feGaussianBlur stdDeviation="80" result="effect1_foregroundBlur_1390_2298"/>
</filter>
<filter id="filter2_f_1390_2298" x="431.891" y="3" width="376.218" height="1249" filterUnits="userSpaceOnUse" color-interpolation-filters="sRGB">
<feFlood flood-opacity="0" result="BackgroundImageFix"/>
<feBlend mode="normal" in="SourceGraphic" in2="BackgroundImageFix" result="shape"/>
<feGaussianBlur stdDeviation="80" result="effect1_foregroundBlur_1390_2298"/>
</filter>
<linearGradient id="paint0_linear_1390_2298" x1="857.643" y1="178" x2="1057.5" y2="933.177" gradientUnits="userSpaceOnUse">
<stop stop-color="red"/>
<stop offset="1" stop-color="red" stop-opacity="0.95"/>
</linearGradient>
<linearGradient id="paint1_linear_1390_2298" x1="382" y1="178" x2="182.143" y2="933.177" gradientUnits="userSpaceOnUse">
<stop stop-color="red"/>
<stop offset="1" stop-color="red" stop-opacity="0.95"/>
</linearGradient>
<linearGradient id="paint2_linear_1390_2298" x1="651.578" y1="176.155" x2="608.641" y2="1091.47" gradientUnits="userSpaceOnUse">
<stop stop-color="red"/>
<stop offset="1" stop-color="red" stop-opacity="0.95"/>
</linearGradient>

<style>
    g{
      animation: line-eff 3s infinite;
      transform-origin: 50% 100%;
    }
    .eff-1{
      animation-delay: 1s;
    }
    .eff-2{
      animation-delay: 3s;
    }
    .eff-3{
      animation-delay: 5s;
    }
    @keyframes line-eff{
      0%,100%{
        opacity: 0;
         transform: rotate(0) scale(0.4) translate3d(0, 0, 0);
      }
      50%{
        opacity:1;
       transform: rotate(0) scale(1) translate3d(0, 0, 300px);
      }
    }
</style>
</defs>
</svg>
