<svg width="1600" height="1144" viewBox="0 0 1600 1144" fill="none" xmlns="http://www.w3.org/2000/svg">
<mask id="path-1-inside-1_653_633" fill="white">
<path d="M0 38.4C0 24.9588 0 18.2381 2.61584 13.1042C4.9168 8.58834 8.58834 4.9168 13.1042 2.61584C18.2381 0 24.9587 0 38.4 0H1561.6C1575.04 0 1581.76 0 1586.9 2.61584C1591.41 4.9168 1595.08 8.58834 1597.38 13.1042C1600 18.2381 1600 24.9587 1600 38.4V1144H0V38.4Z"/>
</mask>
<path d="M-1 24C-1 10.1929 10.1929 -1 24 -1H1576C1589.81 -1 1601 10.1929 1601 24H1599C1599 11.2975 1588.7 1 1576 1H24C11.2975 1 1 11.2975 1 24H-1ZM1600 1144H0H1600ZM-1 1144V24C-1 10.1929 10.1929 -1 24 -1V1C11.2975 1 1 11.2975 1 24V1144H-1ZM1576 -1C1589.81 -1 1601 10.1929 1601 24V1144H1599V24C1599 11.2975 1588.7 1 1576 1V-1Z" fill="url(#paint0_linear_653_633)" fill-opacity="0.16" mask="url(#path-1-inside-1_653_633)"/>
<defs>
<linearGradient id="paint0_linear_653_633" x1="217.391" y1="-50.05" x2="567.309" y2="470.095" gradientUnits="userSpaceOnUse">
<stop stop-color="white"/>
<stop offset="1" stop-color="white" stop-opacity="0"/>
</linearGradient>
</defs>
</svg>
